# MagicaVoxel @ Ephtracy

# material
mtllib village.mtl
usemtl palette

# normals
vn -1 0 0
vn 1 0 0
vn 0 0 1
vn 0 0 -1
vn 0 -1 0
vn 0 1 0

# texcoords
vt 0.958984 0.5
vt 0.978516 0.5

# verts
v -18 2 13
v -18 2 11
v -18 3 13
v -18 3 11
v -14 2 -22
v -14 2 -24
v -14 3 -22
v -14 3 -24
v -9 2 10
v -9 2 5
v -9 8 14
v -9 8 10
v -9 12 14
v -9 12 5
v -5 2 -7
v -5 2 -22
v -5 3 -7
v -5 3 -22
v 0 2 -9
v 0 2 -10
v 0 3 -9
v 0 3 -10
v 1 2 -10
v 1 2 -14
v 1 3 -9
v 1 3 -10
v 1 5 -8
v 1 5 -9
v 1 8 -8
v 1 8 -12
v 1 12 -12
v 1 12 -14
v 2 3 -8
v 2 3 -9
v 2 5 -8
v 2 5 -9
v 3 8 -10
v 3 8 -12
v 3 10 -10
v 3 10 -12
v 4 2 50
v 4 2 13
v 4 2 11
v 4 2 -0
v 4 3 50
v 4 3 13
v 4 3 11
v 4 3 -0
v 5 4 -8
v 5 4 -9
v 5 5 -8
v 5 5 -9
v 5 10 -12
v 5 10 -14
v 5 12 -12
v 5 12 -14
v 7 2 6
v 7 2 -0
v 7 3 6
v 7 3 -0
v 8 2 15
v 8 2 10
v 8 2 7
v 8 3 15
v 8 3 10
v 8 3 7
v 9 2 -12
v 9 2 -17
v 9 7 -12
v 9 7 -17
v 10 2 -17
v 10 2 -22
v 10 3 -17
v 10 3 -22
v 12 17 27
v 12 17 17
v 12 19 27
v 12 19 17
v 13 2 -7
v 13 2 -12
v 13 7 -7
v 13 7 -12
v 14 2 25
v 14 2 21
v 14 3 25
v 14 3 21
v 16 3 23
v 16 3 21
v 16 17 23
v 16 17 21
v 18 2 19
v 18 2 6
v 18 3 19
v 18 3 6
v 23 1 -0
v 23 1 -4
v 23 2 4
v 23 2 -0
v 23 2 -4
v 23 2 -22
v 23 3 4
v 23 3 -0
v 23 3 -4
v 23 3 -22
v 27 2 -7
v 27 2 -12
v 27 2 -14
v 27 2 -18
v 27 3 -12
v 27 3 -14
v 27 6 -12
v 27 6 -14
v 27 10 -7
v 27 10 -12
v 27 13 -12
v 27 13 -18
v 29 13 -12
v 29 13 -15
v 29 16 -12
v 29 16 -15
v 32 3 -12
v 32 3 -14
v 32 6 -4
v 32 6 -7
v 32 6 -9
v 32 6 -12
v 32 6 -14
v 32 10 -4
v 32 10 -9
v -3 2 -9
v -3 2 -22
v -3 3 -9
v -3 3 -22
v -2 2 10
v -2 2 5
v -2 8 14
v -2 8 10
v -2 12 14
v -2 12 5
v 3 2 -7
v 3 2 -8
v 3 3 -7
v 3 3 -8
v 3 10 -12
v 3 10 -14
v 3 12 -12
v 3 12 -14
v 4 4 -8
v 4 4 -9
v 4 5 -8
v 4 5 -9
v 5 6 -8
v 5 6 -10
v 5 8 -8
v 5 8 -10
v 6 2 50
v 6 2 21
v 6 2 19
v 6 2 -0
v 6 3 50
v 6 3 21
v 6 3 19
v 6 3 -0
v 7 2 -8
v 7 2 -14
v 7 6 -8
v 7 6 -10
v 7 10 -10
v 7 10 -12
v 7 12 -12
v 7 12 -14
v 9 2 4
v 9 2 -0
v 9 3 4
v 9 3 -0
v 12 2 -17
v 12 2 -22
v 12 3 -17
v 12 3 -22
v 16 2 15
v 16 2 13
v 16 2 8
v 16 2 7
v 16 3 15
v 16 3 13
v 16 3 8
v 16 3 7
v 17 2 -7
v 17 2 -12
v 17 7 -7
v 17 7 -12
v 18 3 23
v 18 3 21
v 18 17 23
v 18 17 21
v 20 2 25
v 20 2 6
v 20 3 25
v 20 3 6
v 21 2 -12
v 21 2 -17
v 21 7 -12
v 21 7 -17
v 22 17 27
v 22 17 17
v 22 19 27
v 22 19 17
v 24 1 -0
v 24 1 -4
v 24 2 -0
v 24 2 -4
v 24 3 -0
v 24 3 -4
v 25 2 6
v 25 2 -0
v 25 2 -4
v 25 2 -12
v 25 2 -14
v 25 2 -24
v 25 3 6
v 25 3 -0
v 25 3 -4
v 25 3 -12
v 25 3 -14
v 25 3 -24
v 29 6 -7
v 29 6 -9
v 29 10 -7
v 29 10 -9
v 32 10 -12
v 32 10 -18
v 32 13 -15
v 32 13 -18
v 32 16 -12
v 32 16 -15
v 40 2 -7
v 40 2 -18
v 40 6 -4
v 40 6 -7
v 40 10 -4
v 40 10 -18
v 4 2 50
v 4 3 50
v 6 2 50
v 6 3 50
v 12 17 27
v 12 19 27
v 22 17 27
v 22 19 27
v 14 2 25
v 14 3 25
v 20 2 25
v 20 3 25
v 16 3 23
v 16 17 23
v 18 3 23
v 18 17 23
v 6 2 21
v 6 3 21
v 14 2 21
v 14 3 21
v 8 2 15
v 8 3 15
v 16 2 15
v 16 3 15
v -9 8 14
v -9 12 14
v -2 8 14
v -2 12 14
v -18 2 13
v -18 3 13
v 4 2 13
v 4 3 13
v -9 2 10
v -9 8 10
v -2 2 10
v -2 8 10
v 7 2 6
v 7 3 6
v 18 2 6
v 18 3 6
v 20 2 6
v 20 3 6
v 25 2 6
v 25 3 6
v 23 1 -0
v 23 2 -0
v 24 1 -0
v 24 2 -0
v 24 2 -4
v 24 3 -4
v 25 2 -4
v 25 3 -4
v 32 6 -4
v 32 10 -4
v 40 6 -4
v 40 10 -4
v -5 2 -7
v -5 3 -7
v 3 2 -7
v 3 3 -7
v 13 2 -7
v 13 7 -7
v 17 2 -7
v 17 7 -7
v 27 2 -7
v 27 10 -7
v 29 6 -7
v 29 10 -7
v 32 6 -7
v 40 2 -7
v 40 6 -7
v 1 5 -8
v 1 8 -8
v 2 3 -8
v 2 5 -8
v 3 2 -8
v 3 3 -8
v 4 4 -8
v 4 5 -8
v 5 4 -8
v 5 5 -8
v 5 6 -8
v 5 8 -8
v 7 2 -8
v 7 6 -8
v 1 3 -9
v 1 5 -9
v 2 3 -9
v 2 5 -9
v 4 4 -9
v 4 5 -9
v 5 4 -9
v 5 5 -9
v 29 6 -9
v 29 10 -9
v 32 6 -9
v 32 10 -9
v 3 8 -10
v 3 10 -10
v 5 6 -10
v 5 8 -10
v 7 6 -10
v 7 10 -10
v 1 8 -12
v 1 12 -12
v 3 8 -12
v 3 10 -12
v 3 12 -12
v 5 10 -12
v 5 12 -12
v 7 10 -12
v 7 12 -12
v 9 2 -12
v 9 7 -12
v 13 2 -12
v 13 7 -12
v 17 2 -12
v 17 7 -12
v 21 2 -12
v 21 7 -12
v 25 2 -12
v 25 3 -12
v 27 2 -12
v 27 3 -12
v 27 10 -12
v 27 13 -12
v 29 13 -12
v 29 16 -12
v 32 10 -12
v 32 16 -12
v 27 3 -14
v 27 6 -14
v 32 3 -14
v 32 6 -14
v -14 2 -22
v -14 3 -22
v -5 2 -22
v -5 3 -22
v -3 2 -22
v -3 3 -22
v 10 2 -22
v 10 3 -22
v 12 2 -22
v 12 3 -22
v 23 2 -22
v 23 3 -22
v 16 3 21
v 16 17 21
v 18 3 21
v 18 17 21
v 6 2 19
v 6 3 19
v 18 2 19
v 18 3 19
v 12 17 17
v 12 19 17
v 22 17 17
v 22 19 17
v -18 2 11
v -18 3 11
v 4 2 11
v 4 3 11
v 8 2 7
v 8 3 7
v 11 2 7
v 11 3 7
v 16 2 7
v 16 3 7
v -9 2 5
v -9 12 5
v -2 2 5
v -2 12 5
v 9 2 4
v 9 3 4
v 23 2 4
v 23 3 4
v 4 2 -0
v 4 3 -0
v 6 2 -0
v 6 3 -0
v 7 2 -0
v 7 3 -0
v 9 2 -0
v 9 3 -0
v 24 2 -0
v 24 3 -0
v 25 2 -0
v 25 3 -0
v 23 1 -4
v 23 2 -4
v 24 1 -4
v 24 2 -4
v -3 2 -9
v -3 3 -9
v 0 2 -9
v 0 3 -9
v 0 2 -10
v 0 3 -10
v 1 2 -10
v 1 3 -10
v 27 3 -12
v 27 6 -12
v 32 3 -12
v 32 6 -12
v 1 2 -14
v 1 12 -14
v 3 10 -14
v 3 12 -14
v 5 10 -14
v 5 12 -14
v 7 2 -14
v 7 12 -14
v 25 2 -14
v 25 3 -14
v 27 2 -14
v 27 3 -14
v 29 13 -15
v 29 16 -15
v 32 13 -15
v 32 16 -15
v 9 2 -17
v 9 7 -17
v 10 2 -17
v 10 3 -17
v 12 2 -17
v 12 3 -17
v 21 2 -17
v 21 7 -17
v 27 2 -18
v 27 13 -18
v 32 10 -18
v 32 13 -18
v 40 2 -18
v 40 10 -18
v -14 2 -24
v -14 3 -24
v 25 2 -24
v 25 3 -24
v 23 1 -0
v 24 1 -0
v 23 1 -4
v 24 1 -4
v 4 2 50
v 6 2 50
v 14 2 25
v 20 2 25
v 6 2 21
v 14 2 21
v 6 2 19
v 18 2 19
v 8 2 15
v 16 2 15
v 10 2 14
v 12 2 14
v -18 2 13
v 4 2 13
v 10 2 13
v 12 2 13
v 15 2 13
v 16 2 13
v 14 2 12
v 15 2 12
v -18 2 11
v 4 2 11
v 13 2 11
v 14 2 11
v -9 2 10
v -2 2 10
v 8 2 10
v 11 2 10
v 13 2 10
v 14 2 10
v 14 2 9
v 15 2 9
v 15 2 8
v 16 2 8
v 8 2 7
v 11 2 7
v 16 2 7
v 7 2 6
v 18 2 6
v 20 2 6
v 25 2 6
v -9 2 5
v -2 2 5
v 9 2 4
v 23 2 4
v 4 2 -0
v 6 2 -0
v 7 2 -0
v 9 2 -0
v 23 2 -0
v 24 2 -0
v 25 2 -0
v 23 2 -4
v 24 2 -4
v 25 2 -4
v -5 2 -7
v 3 2 -7
v 13 2 -7
v 17 2 -7
v 27 2 -7
v 40 2 -7
v 3 2 -8
v 7 2 -8
v -3 2 -9
v 0 2 -9
v 0 2 -10
v 1 2 -10
v 9 2 -12
v 13 2 -12
v 17 2 -12
v 21 2 -12
v 25 2 -12
v 27 2 -12
v 1 2 -14
v 7 2 -14
v 25 2 -14
v 27 2 -14
v 9 2 -17
v 10 2 -17
v 12 2 -17
v 21 2 -17
v 27 2 -18
v 40 2 -18
v -14 2 -22
v -5 2 -22
v -3 2 -22
v 10 2 -22
v 12 2 -22
v 23 2 -22
v -14 2 -24
v 25 2 -24
v 1 5 -8
v 2 5 -8
v 4 5 -8
v 5 5 -8
v 1 5 -9
v 2 5 -9
v 4 5 -9
v 5 5 -9
v 32 6 -4
v 40 6 -4
v 32 6 -7
v 40 6 -7
v 27 6 -12
v 32 6 -12
v 27 6 -14
v 32 6 -14
v -9 8 14
v -2 8 14
v -9 8 10
v -2 8 10
v 12 17 27
v 22 17 27
v 16 17 23
v 18 17 23
v 16 17 21
v 18 17 21
v 12 17 17
v 22 17 17
v 4 3 50
v 6 3 50
v 14 3 25
v 20 3 25
v 16 3 23
v 18 3 23
v 6 3 21
v 14 3 21
v 16 3 21
v 18 3 21
v 6 3 19
v 18 3 19
v 8 3 15
v 16 3 15
v 10 3 14
v 12 3 14
v -18 3 13
v 4 3 13
v 10 3 13
v 12 3 13
v 15 3 13
v 16 3 13
v 14 3 12
v 15 3 12
v -18 3 11
v 4 3 11
v 13 3 11
v 14 3 11
v 8 3 10
v 11 3 10
v 13 3 10
v 14 3 10
v 14 3 9
v 15 3 9
v 15 3 8
v 16 3 8
v 8 3 7
v 11 3 7
v 16 3 7
v 7 3 6
v 18 3 6
v 20 3 6
v 25 3 6
v 9 3 4
v 23 3 4
v 4 3 -0
v 6 3 -0
v 7 3 -0
v 9 3 -0
v 23 3 -0
v 24 3 -0
v 25 3 -0
v 23 3 -4
v 24 3 -4
v 25 3 -4
v -5 3 -7
v 3 3 -7
v 2 3 -8
v 3 3 -8
v -3 3 -9
v 0 3 -9
v 1 3 -9
v 2 3 -9
v 0 3 -10
v 1 3 -10
v 25 3 -12
v 27 3 -12
v 32 3 -12
v 25 3 -14
v 27 3 -14
v 32 3 -14
v 10 3 -17
v 12 3 -17
v -14 3 -22
v -5 3 -22
v -3 3 -22
v 10 3 -22
v 12 3 -22
v 23 3 -22
v -14 3 -24
v 25 3 -24
v 4 4 -8
v 5 4 -8
v 4 4 -9
v 5 4 -9
v 29 6 -7
v 32 6 -7
v 5 6 -8
v 7 6 -8
v 29 6 -9
v 32 6 -9
v 5 6 -10
v 7 6 -10
v 13 7 -7
v 17 7 -7
v 9 7 -12
v 13 7 -12
v 17 7 -12
v 21 7 -12
v 9 7 -17
v 21 7 -17
v 1 8 -8
v 5 8 -8
v 3 8 -10
v 5 8 -10
v 1 8 -12
v 3 8 -12
v 32 10 -4
v 40 10 -4
v 27 10 -7
v 29 10 -7
v 29 10 -9
v 32 10 -9
v 3 10 -10
v 7 10 -10
v 3 10 -12
v 5 10 -12
v 7 10 -12
v 27 10 -12
v 32 10 -12
v 3 10 -14
v 5 10 -14
v 32 10 -18
v 40 10 -18
v -9 12 14
v -2 12 14
v -9 12 5
v -2 12 5
v 1 12 -12
v 3 12 -12
v 5 12 -12
v 7 12 -12
v 1 12 -14
v 3 12 -14
v 5 12 -14
v 7 12 -14
v 27 13 -12
v 29 13 -12
v 29 13 -15
v 32 13 -15
v 27 13 -18
v 32 13 -18
v 29 16 -12
v 32 16 -12
v 29 16 -15
v 32 16 -15
v 12 19 27
v 22 19 27
v 12 19 17
v 22 19 17

# faces
f 3/1/1 2/1/1 1/1/1
f 4/1/1 2/1/1 3/1/1
f 7/1/1 6/1/1 5/1/1
f 8/1/1 6/1/1 7/1/1
f 12/1/1 10/1/1 9/1/1
f 13/1/1 12/1/1 11/1/1
f 14/1/1 10/1/1 12/1/1
f 14/1/1 12/1/1 13/1/1
f 17/1/1 16/1/1 15/1/1
f 18/1/1 16/1/1 17/1/1
f 21/1/1 20/1/1 19/1/1
f 22/1/1 20/1/1 21/1/1
f 26/1/1 24/1/1 23/1/1
f 28/1/1 26/1/1 25/1/1
f 29/1/1 28/1/1 27/1/1
f 30/1/1 24/1/1 26/1/1
f 30/1/1 28/1/1 29/1/1
f 30/1/1 26/1/1 28/1/1
f 31/1/1 24/1/1 30/1/1
f 32/1/1 24/1/1 31/1/1
f 35/1/1 34/1/1 33/1/1
f 36/1/1 34/1/1 35/1/1
f 39/1/1 38/1/1 37/1/1
f 40/1/1 38/1/1 39/1/1
f 45/1/1 42/1/1 41/1/1
f 46/1/1 42/1/1 45/1/1
f 47/1/1 44/1/1 43/1/1
f 48/1/1 44/1/1 47/1/1
f 51/1/1 50/1/1 49/1/1
f 52/1/1 50/1/1 51/1/1
f 55/1/1 54/1/1 53/1/1
f 56/1/1 54/1/1 55/1/1
f 59/1/1 58/1/1 57/1/1
f 60/1/1 58/1/1 59/1/1
f 64/1/1 62/1/1 61/1/1
f 65/2/1 63/2/1 62/2/1
f 65/1/1 62/1/1 64/1/1
f 66/2/1 63/2/1 65/2/1
f 69/1/1 68/1/1 67/1/1
f 70/1/1 68/1/1 69/1/1
f 73/1/1 72/1/1 71/1/1
f 74/1/1 72/1/1 73/1/1
f 77/1/1 76/1/1 75/1/1
f 78/1/1 76/1/1 77/1/1
f 81/1/1 80/1/1 79/1/1
f 82/1/1 80/1/1 81/1/1
f 85/1/1 84/1/1 83/1/1
f 86/1/1 84/1/1 85/1/1
f 89/1/1 88/1/1 87/1/1
f 90/1/1 88/1/1 89/1/1
f 93/1/1 92/1/1 91/1/1
f 94/1/1 92/1/1 93/1/1
f 98/2/1 96/2/1 95/2/1
f 99/2/1 96/2/1 98/2/1
f 101/1/1 98/1/1 97/1/1
f 102/2/1 99/2/1 98/2/1
f 102/1/1 98/1/1 101/1/1
f 103/1/1 100/1/1 99/1/1
f 103/2/1 99/2/1 102/2/1
f 104/1/1 100/1/1 103/1/1
f 109/1/1 106/1/1 105/1/1
f 110/1/1 108/1/1 107/1/1
f 111/1/1 109/1/1 105/1/1
f 112/1/1 108/1/1 110/1/1
f 113/1/1 111/1/1 105/1/1
f 113/1/1 112/1/1 111/1/1
f 114/1/1 112/1/1 113/1/1
f 115/1/1 112/1/1 114/1/1
f 116/1/1 108/1/1 112/1/1
f 116/1/1 112/1/1 115/1/1
f 119/1/1 118/1/1 117/1/1
f 120/1/1 118/1/1 119/1/1
f 126/1/1 122/1/1 121/1/1
f 127/1/1 122/1/1 126/1/1
f 128/1/1 125/1/1 124/1/1
f 128/1/1 124/1/1 123/1/1
f 129/1/1 125/1/1 128/1/1
f 130/1/2 131/1/2 132/1/2
f 132/1/2 131/1/2 133/1/2
f 134/1/2 135/1/2 137/1/2
f 136/1/2 137/1/2 138/1/2
f 137/1/2 135/1/2 139/1/2
f 138/1/2 137/1/2 139/1/2
f 140/1/2 141/1/2 142/1/2
f 142/1/2 141/1/2 143/1/2
f 144/1/2 145/1/2 146/1/2
f 146/1/2 145/1/2 147/1/2
f 148/1/2 149/1/2 150/1/2
f 150/1/2 149/1/2 151/1/2
f 152/1/2 153/1/2 154/1/2
f 154/1/2 153/1/2 155/1/2
f 156/1/2 157/1/2 160/1/2
f 160/1/2 157/1/2 161/1/2
f 158/1/2 159/1/2 162/1/2
f 162/1/2 159/1/2 163/1/2
f 164/1/2 165/1/2 166/1/2
f 166/1/2 165/1/2 167/1/2
f 167/1/2 165/1/2 168/1/2
f 168/1/2 165/1/2 169/1/2
f 169/1/2 165/1/2 170/1/2
f 170/1/2 165/1/2 171/1/2
f 172/1/2 173/1/2 174/1/2
f 174/1/2 173/1/2 175/1/2
f 176/1/2 177/1/2 178/1/2
f 178/1/2 177/1/2 179/1/2
f 180/1/2 181/1/2 184/1/2
f 181/2/2 182/2/2 185/2/2
f 184/1/2 181/1/2 185/1/2
f 182/1/2 183/1/2 186/1/2
f 185/2/2 182/2/2 186/2/2
f 186/1/2 183/1/2 187/1/2
f 188/1/2 189/1/2 190/1/2
f 190/1/2 189/1/2 191/1/2
f 192/1/2 193/1/2 194/1/2
f 194/1/2 193/1/2 195/1/2
f 196/1/2 197/1/2 198/1/2
f 198/1/2 197/1/2 199/1/2
f 200/1/2 201/1/2 202/1/2
f 202/1/2 201/1/2 203/1/2
f 204/1/2 205/1/2 206/1/2
f 206/1/2 205/1/2 207/1/2
f 208/2/2 209/2/2 210/2/2
f 210/2/2 209/2/2 211/2/2
f 210/2/2 211/2/2 212/2/2
f 212/2/2 211/2/2 213/2/2
f 214/1/2 215/1/2 220/1/2
f 220/1/2 215/1/2 221/1/2
f 216/1/2 217/1/2 222/1/2
f 222/1/2 217/1/2 223/1/2
f 218/1/2 219/1/2 224/1/2
f 224/1/2 219/1/2 225/1/2
f 226/1/2 227/1/2 228/1/2
f 228/1/2 227/1/2 229/1/2
f 230/1/2 231/1/2 232/1/2
f 232/1/2 231/1/2 233/1/2
f 230/1/2 232/1/2 234/1/2
f 234/1/2 232/1/2 235/1/2
f 236/1/2 237/1/2 239/1/2
f 238/1/2 239/1/2 240/1/2
f 239/1/2 237/1/2 241/1/2
f 240/1/2 239/1/2 241/1/2
f 244/1/3 243/1/3 242/1/3
f 245/1/3 243/1/3 244/1/3
f 248/1/3 247/1/3 246/1/3
f 249/1/3 247/1/3 248/1/3
f 252/1/3 251/1/3 250/1/3
f 253/1/3 251/1/3 252/1/3
f 256/1/3 255/1/3 254/1/3
f 257/1/3 255/1/3 256/1/3
f 260/1/3 259/1/3 258/1/3
f 261/1/3 259/1/3 260/1/3
f 264/1/3 263/1/3 262/1/3
f 265/1/3 263/1/3 264/1/3
f 268/1/3 267/1/3 266/1/3
f 269/1/3 267/1/3 268/1/3
f 272/1/3 271/1/3 270/1/3
f 273/1/3 271/1/3 272/1/3
f 276/1/3 275/1/3 274/1/3
f 277/1/3 275/1/3 276/1/3
f 280/1/3 279/1/3 278/1/3
f 281/1/3 279/1/3 280/1/3
f 284/1/3 283/1/3 282/1/3
f 285/1/3 283/1/3 284/1/3
f 288/2/3 287/2/3 286/2/3
f 289/2/3 287/2/3 288/2/3
f 292/1/3 291/1/3 290/1/3
f 293/1/3 291/1/3 292/1/3
f 296/1/3 295/1/3 294/1/3
f 297/1/3 295/1/3 296/1/3
f 300/1/3 299/1/3 298/1/3
f 301/1/3 299/1/3 300/1/3
f 304/1/3 303/1/3 302/1/3
f 305/1/3 303/1/3 304/1/3
f 308/1/3 307/1/3 306/1/3
f 309/1/3 307/1/3 308/1/3
f 310/1/3 308/1/3 306/1/3
f 311/1/3 310/1/3 306/1/3
f 312/1/3 310/1/3 311/1/3
f 316/1/3 314/1/3 313/1/3
f 318/1/3 316/1/3 315/1/3
f 319/1/3 316/1/3 318/1/3
f 319/1/3 318/1/3 317/1/3
f 320/1/3 314/1/3 316/1/3
f 320/1/3 316/1/3 319/1/3
f 321/1/3 319/1/3 317/1/3
f 322/1/3 314/1/3 320/1/3
f 323/1/3 314/1/3 322/1/3
f 324/1/3 314/1/3 323/1/3
f 325/1/3 321/1/3 317/1/3
f 325/1/3 322/1/3 321/1/3
f 325/1/3 323/1/3 322/1/3
f 326/1/3 323/1/3 325/1/3
f 329/1/3 328/1/3 327/1/3
f 330/1/3 328/1/3 329/1/3
f 333/1/3 332/1/3 331/1/3
f 334/1/3 332/1/3 333/1/3
f 337/1/3 336/1/3 335/1/3
f 338/1/3 336/1/3 337/1/3
f 342/1/3 340/1/3 339/1/3
f 343/1/3 342/1/3 341/1/3
f 344/1/3 340/1/3 342/1/3
f 344/1/3 342/1/3 343/1/3
f 347/1/3 346/1/3 345/1/3
f 348/1/3 346/1/3 347/1/3
f 349/1/3 346/1/3 348/1/3
f 352/1/3 351/1/3 350/1/3
f 353/1/3 351/1/3 352/1/3
f 356/1/3 355/1/3 354/1/3
f 357/1/3 355/1/3 356/1/3
f 360/1/3 359/1/3 358/1/3
f 361/1/3 359/1/3 360/1/3
f 364/1/3 363/1/3 362/1/3
f 365/1/3 363/1/3 364/1/3
f 368/1/3 367/1/3 366/1/3
f 370/1/3 368/1/3 366/1/3
f 370/1/3 369/1/3 368/1/3
f 371/1/3 369/1/3 370/1/3
f 374/1/3 373/1/3 372/1/3
f 375/1/3 373/1/3 374/1/3
f 378/1/3 377/1/3 376/1/3
f 379/1/3 377/1/3 378/1/3
f 382/1/3 381/1/3 380/1/3
f 383/1/3 381/1/3 382/1/3
f 386/1/3 385/1/3 384/1/3
f 387/1/3 385/1/3 386/1/3
f 388/1/4 389/1/4 390/1/4
f 390/1/4 389/1/4 391/1/4
f 392/1/4 393/1/4 394/1/4
f 394/1/4 393/1/4 395/1/4
f 396/1/4 397/1/4 398/1/4
f 398/1/4 397/1/4 399/1/4
f 400/1/4 401/1/4 402/1/4
f 402/1/4 401/1/4 403/1/4
f 404/2/4 405/2/4 406/2/4
f 406/2/4 405/2/4 407/2/4
f 406/1/4 407/1/4 408/1/4
f 408/1/4 407/1/4 409/1/4
f 410/1/4 411/1/4 412/1/4
f 412/1/4 411/1/4 413/1/4
f 414/1/4 415/1/4 416/1/4
f 416/1/4 415/1/4 417/1/4
f 418/1/4 419/1/4 420/1/4
f 420/1/4 419/1/4 421/1/4
f 422/1/4 423/1/4 424/1/4
f 424/1/4 423/1/4 425/1/4
f 426/1/4 427/1/4 428/1/4
f 428/1/4 427/1/4 429/1/4
f 430/2/4 431/2/4 432/2/4
f 432/2/4 431/2/4 433/2/4
f 434/1/4 435/1/4 436/1/4
f 436/1/4 435/1/4 437/1/4
f 438/1/4 439/1/4 440/1/4
f 440/1/4 439/1/4 441/1/4
f 442/1/4 443/1/4 444/1/4
f 444/1/4 443/1/4 445/1/4
f 446/1/4 447/1/4 448/1/4
f 448/1/4 447/1/4 449/1/4
f 446/1/4 448/1/4 450/1/4
f 446/1/4 450/1/4 452/1/4
f 450/1/4 451/1/4 452/1/4
f 452/1/4 451/1/4 453/1/4
f 454/1/4 455/1/4 456/1/4
f 456/1/4 455/1/4 457/1/4
f 458/1/4 459/1/4 460/1/4
f 460/1/4 459/1/4 461/1/4
f 462/1/4 463/1/4 464/1/4
f 464/1/4 463/1/4 465/1/4
f 465/1/4 463/1/4 467/1/4
f 466/1/4 467/1/4 468/1/4
f 467/1/4 463/1/4 469/1/4
f 468/1/4 467/1/4 469/1/4
f 470/1/4 471/1/4 472/1/4
f 472/1/4 471/1/4 473/1/4
f 470/1/4 472/1/4 474/1/4
f 474/1/4 472/1/4 475/1/4
f 476/1/4 477/1/4 478/1/4
f 478/1/4 477/1/4 479/1/4
f 482/2/5 481/2/5 480/2/5
f 483/2/5 481/2/5 482/2/5
f 488/1/5 485/1/5 484/1/5
f 489/1/5 487/1/5 486/1/5
f 490/1/5 488/1/5 484/1/5
f 490/1/5 489/1/5 488/1/5
f 491/1/5 487/1/5 489/1/5
f 491/1/5 489/1/5 490/1/5
f 494/1/5 493/1/5 492/1/5
f 495/1/5 493/1/5 494/1/5
f 497/1/5 490/1/5 484/1/5
f 498/1/5 494/1/5 492/1/5
f 498/2/5 495/2/5 494/2/5
f 499/1/5 493/1/5 495/1/5
f 499/2/5 495/2/5 498/2/5
f 500/1/5 493/1/5 499/1/5
f 501/1/5 493/1/5 500/1/5
f 502/1/5 499/1/5 498/1/5
f 502/1/5 500/1/5 499/1/5
f 503/2/5 501/2/5 500/2/5
f 503/1/5 500/1/5 502/1/5
f 504/1/5 497/1/5 496/1/5
f 505/1/5 490/1/5 497/1/5
f 505/1/5 497/1/5 504/1/5
f 506/1/5 502/1/5 498/1/5
f 507/2/5 503/2/5 502/2/5
f 507/1/5 502/1/5 506/1/5
f 510/1/5 498/1/5 492/1/5
f 510/1/5 506/1/5 498/1/5
f 511/1/5 506/1/5 510/1/5
f 512/2/5 507/2/5 506/2/5
f 512/1/5 506/1/5 511/1/5
f 513/2/5 503/2/5 507/2/5
f 513/2/5 507/2/5 512/2/5
f 514/1/5 512/1/5 511/1/5
f 514/2/5 503/2/5 513/2/5
f 514/1/5 513/1/5 512/1/5
f 515/2/5 501/2/5 503/2/5
f 515/2/5 503/2/5 514/2/5
f 516/1/5 515/1/5 514/1/5
f 516/2/5 501/2/5 515/2/5
f 517/2/5 501/2/5 516/2/5
f 518/2/5 511/2/5 510/2/5
f 519/1/5 514/1/5 511/1/5
f 519/2/5 511/2/5 518/2/5
f 519/1/5 516/1/5 514/1/5
f 519/1/5 517/1/5 516/1/5
f 520/1/5 517/1/5 519/1/5
f 522/1/5 487/1/5 491/1/5
f 523/1/5 487/1/5 522/1/5
f 525/1/5 509/1/5 508/1/5
f 526/1/5 509/1/5 525/1/5
f 527/1/5 524/1/5 523/1/5
f 527/1/5 522/1/5 521/1/5
f 527/1/5 523/1/5 522/1/5
f 528/1/5 524/1/5 527/1/5
f 529/1/5 490/1/5 505/1/5
f 530/1/5 490/1/5 529/1/5
f 531/1/5 527/1/5 521/1/5
f 532/1/5 527/1/5 531/1/5
f 533/1/5 524/1/5 528/1/5
f 534/1/5 524/1/5 533/1/5
f 535/1/5 524/1/5 534/1/5
f 545/1/5 540/1/5 539/1/5
f 547/1/5 545/1/5 539/1/5
f 547/1/5 546/1/5 545/1/5
f 548/1/5 546/1/5 547/1/5
f 549/1/5 546/1/5 548/1/5
f 550/1/5 546/1/5 549/1/5
f 552/1/5 542/1/5 541/1/5
f 553/1/5 542/1/5 552/1/5
f 555/1/5 537/1/5 536/1/5
f 555/1/5 538/1/5 537/1/5
f 556/1/5 544/1/5 543/1/5
f 557/1/5 546/1/5 550/1/5
f 558/1/5 546/1/5 557/1/5
f 559/1/5 556/1/5 555/1/5
f 559/1/5 555/1/5 536/1/5
f 560/1/5 544/1/5 556/1/5
f 560/1/5 556/1/5 559/1/5
f 561/1/5 554/1/5 553/1/5
f 561/1/5 553/1/5 552/1/5
f 561/1/5 552/1/5 551/1/5
f 562/1/5 554/1/5 561/1/5
f 563/1/5 554/1/5 562/1/5
f 564/1/5 554/1/5 563/1/5
f 565/1/5 544/1/5 560/1/5
f 566/1/5 544/1/5 565/1/5
f 568/1/5 547/1/5 539/1/5
f 569/1/5 547/1/5 568/1/5
f 570/1/5 563/1/5 562/1/5
f 571/1/5 563/1/5 570/1/5
f 572/1/5 559/1/5 536/1/5
f 573/1/5 569/1/5 568/1/5
f 573/1/5 572/1/5 571/1/5
f 573/1/5 571/1/5 570/1/5
f 573/1/5 568/1/5 567/1/5
f 573/1/5 570/1/5 569/1/5
f 574/1/5 559/1/5 572/1/5
f 574/1/5 572/1/5 573/1/5
f 579/1/5 576/1/5 575/1/5
f 580/1/5 576/1/5 579/1/5
f 581/1/5 578/1/5 577/1/5
f 582/1/5 578/1/5 581/1/5
f 585/1/5 584/1/5 583/1/5
f 586/1/5 584/1/5 585/1/5
f 589/1/5 588/1/5 587/1/5
f 590/1/5 588/1/5 589/1/5
f 593/1/5 592/1/5 591/1/5
f 594/1/5 592/1/5 593/1/5
f 597/1/5 596/1/5 595/1/5
f 598/1/5 596/1/5 597/1/5
f 599/1/5 597/1/5 595/1/5
f 600/1/5 596/1/5 598/1/5
f 601/1/5 599/1/5 595/1/5
f 601/1/5 600/1/5 599/1/5
f 602/1/5 596/1/5 600/1/5
f 602/1/5 600/1/5 601/1/5
f 605/1/6 606/1/6 607/1/6
f 607/1/6 606/1/6 608/1/6
f 603/1/6 604/1/6 609/1/6
f 605/1/6 607/1/6 610/1/6
f 610/1/6 607/1/6 611/1/6
f 608/1/6 606/1/6 612/1/6
f 610/1/6 611/1/6 613/1/6
f 611/1/6 612/1/6 613/1/6
f 603/1/6 609/1/6 613/1/6
f 609/1/6 610/1/6 613/1/6
f 612/1/6 606/1/6 614/1/6
f 613/1/6 612/1/6 614/1/6
f 615/1/6 616/1/6 617/1/6
f 617/1/6 616/1/6 618/1/6
f 603/1/6 613/1/6 620/1/6
f 615/1/6 617/1/6 621/1/6
f 617/2/6 618/2/6 621/2/6
f 618/1/6 616/1/6 622/1/6
f 621/2/6 618/2/6 622/2/6
f 622/1/6 616/1/6 623/1/6
f 623/1/6 616/1/6 624/1/6
f 621/1/6 622/1/6 625/1/6
f 622/1/6 623/1/6 625/1/6
f 623/2/6 624/2/6 626/2/6
f 625/1/6 623/1/6 626/1/6
f 619/1/6 620/1/6 627/1/6
f 620/1/6 613/1/6 628/1/6
f 627/1/6 620/1/6 628/1/6
f 621/1/6 625/1/6 629/1/6
f 625/2/6 626/2/6 630/2/6
f 629/1/6 625/1/6 630/1/6
f 615/1/6 621/1/6 631/1/6
f 621/1/6 629/1/6 631/1/6
f 631/1/6 629/1/6 632/1/6
f 629/2/6 630/2/6 633/2/6
f 632/1/6 629/1/6 633/1/6
f 630/2/6 626/2/6 634/2/6
f 633/2/6 630/2/6 634/2/6
f 632/1/6 633/1/6 635/1/6
f 634/2/6 626/2/6 635/2/6
f 633/1/6 634/1/6 635/1/6
f 626/2/6 624/2/6 636/2/6
f 635/2/6 626/2/6 636/2/6
f 635/1/6 636/1/6 637/1/6
f 636/2/6 624/2/6 637/2/6
f 637/2/6 624/2/6 638/2/6
f 631/2/6 632/2/6 639/2/6
f 632/1/6 635/1/6 640/1/6
f 639/2/6 632/2/6 640/2/6
f 635/1/6 637/1/6 640/1/6
f 637/1/6 638/1/6 640/1/6
f 640/1/6 638/1/6 641/1/6
f 614/1/6 606/1/6 643/1/6
f 643/1/6 606/1/6 644/1/6
f 642/1/6 643/1/6 646/1/6
f 644/1/6 645/1/6 646/1/6
f 643/1/6 644/1/6 646/1/6
f 646/1/6 645/1/6 647/1/6
f 628/1/6 613/1/6 648/1/6
f 648/1/6 613/1/6 649/1/6
f 642/1/6 646/1/6 650/1/6
f 650/1/6 646/1/6 651/1/6
f 647/1/6 645/1/6 652/1/6
f 652/1/6 645/1/6 653/1/6
f 653/1/6 645/1/6 654/1/6
f 652/2/6 653/2/6 655/2/6
f 655/2/6 653/2/6 656/2/6
f 658/1/6 659/1/6 660/1/6
f 660/1/6 659/1/6 661/1/6
f 658/1/6 660/1/6 662/1/6
f 662/1/6 660/1/6 663/1/6
f 663/1/6 660/1/6 664/1/6
f 664/1/6 660/1/6 665/1/6
f 663/1/6 664/1/6 666/1/6
f 666/1/6 664/1/6 667/1/6
f 655/1/6 656/1/6 668/1/6
f 656/1/6 657/1/6 668/1/6
f 655/1/6 668/1/6 671/1/6
f 669/1/6 670/1/6 671/1/6
f 668/1/6 669/1/6 671/1/6
f 671/1/6 670/1/6 672/1/6
f 672/1/6 670/1/6 673/1/6
f 658/1/6 662/1/6 677/1/6
f 677/1/6 662/1/6 678/1/6
f 674/1/6 675/1/6 679/1/6
f 679/1/6 675/1/6 680/1/6
f 655/1/6 671/1/6 681/1/6
f 677/1/6 678/1/6 682/1/6
f 680/1/6 681/1/6 682/1/6
f 679/1/6 680/1/6 682/1/6
f 676/1/6 677/1/6 682/1/6
f 678/1/6 679/1/6 682/1/6
f 681/1/6 671/1/6 683/1/6
f 682/1/6 681/1/6 683/1/6
f 684/1/6 685/1/6 686/1/6
f 686/1/6 685/1/6 687/1/6
f 688/1/6 689/1/6 692/1/6
f 692/1/6 689/1/6 693/1/6
f 690/1/6 691/1/6 694/1/6
f 694/1/6 691/1/6 695/1/6
f 696/1/6 697/1/6 699/1/6
f 699/1/6 697/1/6 700/1/6
f 698/1/6 699/1/6 702/1/6
f 700/1/6 701/1/6 702/1/6
f 699/1/6 700/1/6 702/1/6
f 702/1/6 701/1/6 703/1/6
f 704/1/6 705/1/6 706/1/6
f 706/1/6 705/1/6 707/1/6
f 704/1/6 706/1/6 708/1/6
f 708/1/6 706/1/6 709/1/6
f 712/1/6 713/1/6 714/1/6
f 710/1/6 711/1/6 715/1/6
f 716/1/6 717/1/6 718/1/6
f 718/1/6 717/1/6 719/1/6
f 719/1/6 717/1/6 720/1/6
f 712/1/6 714/1/6 721/1/6
f 714/1/6 715/1/6 721/1/6
f 715/1/6 711/1/6 722/1/6
f 721/1/6 715/1/6 722/1/6
f 718/1/6 719/1/6 723/1/6
f 723/1/6 719/1/6 724/1/6
f 722/1/6 711/1/6 725/1/6
f 725/1/6 711/1/6 726/1/6
f 727/1/6 728/1/6 729/1/6
f 729/1/6 728/1/6 730/1/6
f 731/1/6 732/1/6 735/1/6
f 735/1/6 732/1/6 736/1/6
f 733/1/6 734/1/6 737/1/6
f 737/1/6 734/1/6 738/1/6
f 739/1/6 740/1/6 741/1/6
f 739/1/6 741/1/6 743/1/6
f 741/1/6 742/1/6 743/1/6
f 743/1/6 742/1/6 744/1/6
f 745/1/6 746/1/6 747/1/6
f 747/1/6 746/1/6 748/1/6
f 749/1/6 750/1/6 751/1/6
f 751/1/6 750/1/6 752/1/6
